<svg width="130" height="31" viewBox="0 0 130 31" fill="none" xmlns="http://www.w3.org/2000/svg">
<path d="M1.0957 15.5668L2.41439 12.6618C3.82683 13.6862 5.93794 14.3982 7.94924 14.3982C10.2509 14.3982 11.1855 13.6352 11.1855 12.6138C11.1855 9.49547 1.43445 11.6374 1.43445 5.44889C1.43445 2.61599 3.7361 0.260742 8.50272 0.260742C10.6108 0.260742 12.7673 0.759431 14.3249 1.73578L13.1272 4.66181C11.5696 3.78159 9.96356 3.352 8.47853 3.352C6.17688 3.352 5.2907 4.20818 5.2907 5.25663C5.2907 8.32686 15.0417 6.20894 15.0417 12.3254C15.0417 15.1102 12.7189 17.4895 7.92504 17.4895C5.2665 17.4895 2.58074 16.7024 1.0957 15.5608V15.5668Z" fill="white"/>
<path d="M22.1341 3.69116H16.7656V0.548828H31.3831V3.69116H26.0146V17.2098H22.1341V3.69116Z" fill="white"/>
<path d="M45.3544 17.2098L42.1212 12.5684H38.5523V17.2098H34.6719V0.548828H41.9307C46.41 0.548828 49.2137 2.85902 49.2137 6.59316C49.2137 9.09261 47.9434 10.9251 45.7627 11.8534L49.5252 17.2098H45.3544ZM41.7129 3.69116H38.5493V9.49817H41.7129C44.0841 9.49817 45.2818 8.40466 45.2818 6.59316C45.2818 4.78167 44.0841 3.68816 41.7129 3.68816V3.69116Z" fill="white"/>
<path d="M64.5179 13.6379H56.7298L55.2448 17.2069H51.2676L58.7442 0.545898H62.5792L70.08 17.2069H66.006L64.521 13.6379H64.5179ZM63.296 10.7119L60.6375 4.33412L57.979 10.7119H63.2991H63.296Z" fill="white"/>
<path d="M75.6634 3.69116H70.2949V0.548828H84.9124V3.69116H79.5439V17.2098H75.6634V3.69116Z" fill="white"/>
<path d="M101.177 14.1155V17.2098H88.1895V0.548828H100.865V3.64309H92.0487V7.26008H99.8368V10.2582H92.0487V14.1125H101.177V14.1155Z" fill="white"/>
<path d="M116.756 8.61819H120.304V15.3775C118.459 16.7594 115.919 17.4954 113.523 17.4954C108.252 17.4954 104.371 13.9025 104.371 8.87955C104.371 3.85663 108.252 0.263672 113.596 0.263672C116.542 0.263672 118.989 1.26405 120.616 3.14464L118.124 5.43079C116.902 4.14502 115.489 3.5502 113.786 3.5502C110.529 3.5502 108.3 5.71619 108.3 8.88255C108.3 12.0489 110.529 14.2149 113.738 14.2149C114.794 14.2149 115.773 14.0256 116.756 13.4999V8.62119V8.61819Z" fill="white"/>
<path d="M125.092 0.548828H128.972V17.2098H125.092V0.548828Z" fill="white"/>
<path d="M0.853516 23.5543L0.986594 23.2929C1.21948 23.5182 1.63081 23.6835 2.05727 23.6835C2.6652 23.6835 2.92833 23.4311 2.92833 23.1127C2.92833 22.2295 0.929128 22.7702 0.929128 21.5776C0.929128 21.1029 1.30114 20.6943 2.12683 20.6943C2.4928 20.6943 2.87389 20.7995 3.13399 20.9797L3.01906 21.2501C2.74081 21.0699 2.41719 20.9827 2.12986 20.9827C1.53705 20.9827 1.2709 21.2441 1.2709 21.5685C1.2709 22.4518 3.2701 21.92 3.2701 23.0946C3.2701 23.5693 2.88901 23.9749 2.06029 23.9749C1.57335 23.9749 1.09548 23.8036 0.853516 23.5543Z" fill="white"/>
<path d="M4.25 20.7217H4.59479V23.9481H4.25V20.7217Z" fill="white"/>
<path d="M5.57227 23.5543L5.70534 23.2929C5.93823 23.5182 6.34956 23.6835 6.77602 23.6835C7.38395 23.6835 7.64708 23.4311 7.64708 23.1127C7.64708 22.2295 5.64788 22.7702 5.64788 21.5776C5.64788 21.1029 6.01989 20.6943 6.84558 20.6943C7.21155 20.6943 7.59264 20.7995 7.85274 20.9797L7.73781 21.2501C7.45956 21.0699 7.13594 20.9827 6.84861 20.9827C6.2558 20.9827 5.98965 21.2441 5.98965 21.5685C5.98965 22.4518 7.98885 21.92 7.98885 23.0946C7.98885 23.5693 7.60776 23.9749 6.77904 23.9749C6.2921 23.9749 5.81423 23.8036 5.57227 23.5543Z" fill="white"/>
<path d="M9.55235 21.0161H8.41211V20.7217H11.0374V21.0161H9.89714V23.9451H9.55537V21.0161H9.55235Z" fill="white"/>
<path d="M14.112 23.6537V23.9481H11.8164V20.7217H14.0424V21.0161H12.1582V22.1637H13.8368V22.4551H12.1582V23.6537H14.112Z" fill="white"/>
<path d="M18.5257 20.7218V23.9482H18.1961V21.3676L16.9197 23.5366H16.7564L15.4801 21.3797V23.9452H15.1504V20.7188H15.4347L16.8441 23.11L18.2414 20.7188H18.5257V20.7218Z" fill="white"/>
<path d="M21.2598 20.7217H21.6015V23.9481H21.2598V20.7217Z" fill="white"/>
<path d="M25.6047 20.7217V23.9481H25.3204L23.2335 21.3315V23.9481H22.8887V20.7217H23.173L25.2659 23.3383V20.7217H25.6047Z" fill="white"/>
<path d="M27.2402 21.0161V22.2838H28.9188V22.5782H27.2402V23.9481H26.8984V20.7217H29.1245V21.0161H27.2402Z" fill="white"/>
<path d="M29.7383 22.3346C29.7383 21.3943 30.4611 20.6943 31.4441 20.6943C32.4271 20.6943 33.1469 21.3913 33.1469 22.3346C33.1469 23.2779 32.418 23.9749 31.4441 23.9749C30.4702 23.9749 29.7383 23.2749 29.7383 22.3346ZM32.8051 22.3346C32.8051 21.5655 32.2244 20.9978 31.4471 20.9978C30.6698 20.9978 30.08 21.5655 30.08 22.3346C30.08 23.1037 30.6638 23.6714 31.4471 23.6714C32.2305 23.6714 32.8051 23.1037 32.8051 22.3346Z" fill="white"/>
<path d="M36.3634 23.9481L35.6224 22.9116C35.5378 22.9206 35.4561 22.9266 35.3623 22.9266H34.4913V23.9511H34.1465V20.7246H35.3623C36.188 20.7246 36.6901 21.1392 36.6901 21.8301C36.6901 22.3378 36.4209 22.6923 35.9491 22.8425L36.7415 23.9481H36.3665H36.3634ZM36.3453 21.8301C36.3453 21.3134 36.0005 21.019 35.3533 21.019H34.4913V22.6352H35.3533C36.0035 22.6352 36.3453 22.3348 36.3453 21.8301Z" fill="white"/>
<path d="M41.1078 20.7218V23.9482H40.7781V21.3676L39.5018 23.5366H39.3384L38.0621 21.3797V23.9452H37.7324V20.7188H38.0167L39.4261 23.11L40.8235 20.7188H41.1078V20.7218Z" fill="white"/>
<path d="M44.4346 23.0859H42.626L42.2358 23.9481H41.8789L43.3639 20.7217H43.7027L45.1877 23.9481H44.8248L44.4346 23.0859ZM44.3106 22.8096L43.5303 21.0762L42.75 22.8096H44.3076H44.3106Z" fill="white"/>
<path d="M45.6426 23.5543L45.7757 23.2929C46.0085 23.5182 46.4199 23.6835 46.8463 23.6835C47.4543 23.6835 47.7174 23.4311 47.7174 23.1127C47.7174 22.2295 45.7182 22.7702 45.7182 21.5776C45.7182 21.1029 46.0902 20.6943 46.9159 20.6943C47.2819 20.6943 47.663 20.7995 47.9231 20.9797L47.8081 21.2501C47.5299 21.0699 47.2062 20.9827 46.9189 20.9827C46.3261 20.9827 46.06 21.2441 46.06 21.5685C46.06 22.4518 48.0592 21.92 48.0592 23.0946C48.0592 23.5693 47.6781 23.9749 46.8494 23.9749C46.3624 23.9749 45.8845 23.8036 45.6426 23.5543Z" fill="white"/>
<path d="M49.0391 20.7217H49.3808V23.9481H49.0391V20.7217Z" fill="white"/>
<path d="M52.7535 21.0161H51.6133V20.7217H54.2386V21.0161H53.0983V23.9451H52.7535V21.0161Z" fill="white"/>
<path d="M57.2326 23.9481L56.4916 22.9116C56.4069 22.9206 56.3252 22.9266 56.2315 22.9266H55.3604V23.9511H55.0156V20.7246H56.2315C57.0572 20.7246 57.5592 21.1392 57.5592 21.8301C57.5592 22.3378 57.2901 22.6923 56.8182 22.8425L57.6106 23.9481H57.2356H57.2326ZM57.2144 21.8301C57.2144 21.3134 56.8696 21.019 56.2224 21.019H55.3604V22.6352H56.2224C56.8727 22.6352 57.2144 22.3348 57.2144 21.8301Z" fill="white"/>
<path d="M60.6358 23.0859H58.8271L58.437 23.9481H58.0801L59.5651 20.7217H59.9039L61.3889 23.9481H61.0259L60.6358 23.0859ZM60.5118 22.8096L59.7315 21.0762L58.9511 22.8096H60.5088H60.5118Z" fill="white"/>
<path d="M64.8742 20.7217V23.9481H64.5899L62.503 21.3315V23.9481H62.1582V20.7217H62.4425L64.5355 23.3383V20.7217H64.8742Z" fill="white"/>
<path d="M65.8496 23.5543L65.9827 23.2929C66.2156 23.5182 66.6269 23.6835 67.0534 23.6835C67.6613 23.6835 67.9244 23.4311 67.9244 23.1127C67.9244 22.2295 65.9252 22.7702 65.9252 21.5776C65.9252 21.1029 66.2972 20.6943 67.1229 20.6943C67.4889 20.6943 67.87 20.7995 68.1301 20.9797L68.0152 21.2501C67.7369 21.0699 67.4133 20.9827 67.126 20.9827C66.5331 20.9827 66.267 21.2441 66.267 21.5685C66.267 22.4518 68.2662 21.92 68.2662 23.0946C68.2662 23.5693 67.8851 23.9749 67.0564 23.9749C66.5694 23.9749 66.0916 23.8036 65.8496 23.5543Z" fill="white"/>
<path d="M71.7897 21.8272C71.7897 22.5151 71.2876 22.9297 70.4619 22.9297H69.5909V23.9481H69.2461V20.7217H70.4619C71.2876 20.7217 71.7897 21.1362 71.7897 21.8272ZM71.4449 21.8272C71.4449 21.3105 71.1001 21.0161 70.4529 21.0161H69.5909V22.6293H70.4529C71.1031 22.6293 71.4449 22.3349 71.4449 21.8272Z" fill="white"/>
<path d="M72.5215 22.3346C72.5215 21.3943 73.2443 20.6943 74.2273 20.6943C75.2103 20.6943 75.9301 21.3913 75.9301 22.3346C75.9301 23.2779 75.2012 23.9749 74.2273 23.9749C73.2534 23.9749 72.5215 23.2749 72.5215 22.3346ZM75.5883 22.3346C75.5883 21.5655 75.0076 20.9978 74.2303 20.9978C73.453 20.9978 72.8602 21.5655 72.8602 22.3346C72.8602 23.1037 73.444 23.6714 74.2303 23.6714C75.0167 23.6714 75.5883 23.1037 75.5883 22.3346Z" fill="white"/>
<path d="M79.1506 23.9481L78.4096 22.9116C78.3249 22.9206 78.2432 22.9266 78.1494 22.9266H77.2784V23.9511H76.9336V20.7246H78.1494C78.9751 20.7246 79.4772 21.1392 79.4772 21.8301C79.4772 22.3378 79.208 22.6923 78.7362 22.8425L79.5286 23.9481H79.1536H79.1506ZM79.1324 21.8301C79.1324 21.3134 78.7876 21.019 78.1404 21.019H77.2784V22.6352H78.1404C78.7906 22.6352 79.1324 22.3348 79.1324 21.8301Z" fill="white"/>
<path d="M81.1051 21.0161H79.9648V20.7217H82.5901V21.0161H81.4499V23.9451H81.1051V21.0161Z" fill="white"/>
<path d="M85.2432 23.0859H83.4346L83.0444 23.9481H82.6875L84.1725 20.7217H84.5113L85.9963 23.9481H85.6334L85.2432 23.0859ZM85.1192 22.8096L84.3389 21.0762L83.5586 22.8096H85.1162H85.1192Z" fill="white"/>
<path d="M86.4531 23.5543L86.5862 23.2929C86.8191 23.5182 87.2304 23.6835 87.6569 23.6835C88.2648 23.6835 88.5279 23.4311 88.5279 23.1127C88.5279 22.2295 86.5287 22.7702 86.5287 21.5776C86.5287 21.1029 86.9008 20.6943 87.7264 20.6943C88.0924 20.6943 88.4735 20.7995 88.7336 20.9797L88.6187 21.2501C88.3404 21.0699 88.0168 20.9827 87.7295 20.9827C87.1367 20.9827 86.8705 21.2441 86.8705 21.5685C86.8705 22.4518 88.8697 21.92 88.8697 23.0946C88.8697 23.5693 88.4886 23.9749 87.6599 23.9749C87.173 23.9749 86.6951 23.8036 86.4531 23.5543Z" fill="white"/>
<path d="M89.8496 20.7217H90.1944V23.9481H89.8496V20.7217Z" fill="white"/>
<path d="M93.5621 21.0161H92.4219V20.7217H95.0471V21.0161H93.9069V23.9451H93.5621V21.0161Z" fill="white"/>
<path d="M98.1237 23.6537V23.9481H95.8281V20.7217H98.0542V21.0161H96.1699V22.1637H97.8485V22.4551H96.1699V23.6537H98.1237Z" fill="white"/>
<path d="M101.375 23.9481L100.634 22.9116C100.549 22.9206 100.468 22.9266 100.374 22.9266H99.503V23.9511H99.1582V20.7246H100.374C101.2 20.7246 101.702 21.1392 101.702 21.8301C101.702 22.3378 101.433 22.6923 100.961 22.8425L101.753 23.9481H101.378H101.375ZM101.357 21.8301C101.357 21.3134 101.012 21.019 100.365 21.019H99.503V22.6352H100.365C101.015 22.6352 101.357 22.3348 101.357 21.8301Z" fill="white"/>
<path d="M120.379 23.9481L119.638 22.9116C119.553 22.9206 119.472 22.9266 119.378 22.9266H118.507V23.9511H118.162V20.7246H119.378C120.204 20.7246 120.706 21.1392 120.706 21.8301C120.706 22.3378 120.437 22.6923 119.965 22.8425L120.757 23.9481H120.382H120.379ZM120.361 21.8301C120.361 21.3134 120.016 21.019 119.369 21.019H118.507V22.6352H119.369C120.019 22.6352 120.361 22.3348 120.361 21.8301Z" fill="white"/>
<path d="M102.746 20.7217H103.091V23.9481H102.746V20.7217Z" fill="white"/>
<path d="M107.095 20.7217V23.9481H106.811L104.724 21.3315V23.9481H104.379V20.7217H104.663L106.756 23.3383V20.7217H107.095Z" fill="white"/>
<path d="M109.011 21.0161H107.871V20.7217H110.496V21.0161H109.356V23.9451H109.011V21.0161Z" fill="white"/>
<path d="M113.575 23.6537V23.9481H111.279V20.7217H113.505V21.0161H111.621V22.1637H113.3V22.4551H111.621V23.6537H113.575Z" fill="white"/>
<path d="M116.877 22.3346H117.206V23.5633C116.901 23.8337 116.465 23.9749 116.015 23.9749C115.026 23.9749 114.303 23.2779 114.303 22.3346C114.303 21.3913 115.026 20.6943 116.018 20.6943C116.511 20.6943 116.937 20.8506 117.224 21.16L117.01 21.3763C116.737 21.1089 116.411 20.9978 116.03 20.9978C115.228 20.9978 114.638 21.5655 114.638 22.3346C114.638 23.1037 115.228 23.6714 116.027 23.6714C116.338 23.6714 116.626 23.6023 116.877 23.4221V22.3346Z" fill="white"/>
<path d="M124.024 23.0859H122.216L121.826 23.9481H121.469L122.954 20.7217H123.293L124.778 23.9481H124.415L124.024 23.0859ZM123.9 22.8096L123.12 21.0762L122.34 22.8096H123.897H123.9Z" fill="white"/>
<path d="M125.238 23.5543L125.371 23.2929C125.604 23.5182 126.016 23.6835 126.442 23.6835C127.05 23.6835 127.313 23.4311 127.313 23.1127C127.313 22.2295 125.314 22.7702 125.314 21.5776C125.314 21.1029 125.686 20.6943 126.512 20.6943C126.878 20.6943 127.259 20.7995 127.519 20.9797L127.404 21.2501C127.126 21.0699 126.802 20.9827 126.515 20.9827C125.922 20.9827 125.656 21.2441 125.656 21.5685C125.656 22.4518 127.655 21.92 127.655 23.0946C127.655 23.5693 127.274 23.9749 126.445 23.9749C125.958 23.9749 125.48 23.8036 125.238 23.5543Z" fill="white"/>
<path d="M128.635 20.7217H128.98V23.9481H128.635V20.7217Z" fill="white"/>
<path d="M84.9492 30.1935L85.2577 29.6258C85.5844 29.8871 86.0592 30.0494 86.5371 30.0494C87.1087 30.0494 87.4777 29.8421 87.4777 29.4966C87.4777 28.7726 85.4997 29.1511 85.4997 27.8984C85.4997 27.1293 86.1953 26.6396 87.2116 26.6396C87.7166 26.6396 88.1915 26.7568 88.5242 26.9671L88.2369 27.5409C87.9465 27.3456 87.5654 27.2405 87.1722 27.2405C86.5764 27.2405 86.2256 27.4808 86.2256 27.8203C86.2256 28.5503 88.2036 28.1928 88.2036 29.3854C88.2036 30.1605 87.5019 30.6502 86.4705 30.6502C85.8535 30.6502 85.2607 30.4549 84.9522 30.1935H84.9492Z" fill="white"/>
<path d="M89.7766 26.6963H90.5055L89.7191 30.5957H88.9902L89.7766 26.6963Z" fill="white"/>
<path d="M93.8287 29.6915H91.8537L91.2881 30.5927H90.5078L93.0605 26.6934H93.7834L94.7603 30.5927H94.0374L93.8287 29.6915ZM93.6926 29.1237L93.2934 27.4083L92.2106 29.1237H93.6896H93.6926Z" fill="white"/>
<path d="M95.3105 30.1935L95.6191 29.6258C95.9457 29.8871 96.4205 30.0494 96.8984 30.0494C97.47 30.0494 97.839 29.8421 97.839 29.4966C97.839 28.7726 95.861 29.1511 95.861 27.8984C95.861 27.1293 96.5566 26.6396 97.5729 26.6396C98.078 26.6396 98.5528 26.7568 98.8855 26.9671L98.5982 27.5409C98.3078 27.3456 97.9267 27.2405 97.5336 27.2405C96.9377 27.2405 96.5869 27.4808 96.5869 27.8203C96.5869 28.5503 98.5649 28.1928 98.5649 29.3854C98.5649 30.1605 97.8632 30.6502 96.8319 30.6502C96.2149 30.6502 95.6221 30.4549 95.3136 30.1935H95.3105Z" fill="white"/>
<path d="M102.112 29.6915H100.137L99.5713 30.5927H98.791L101.344 26.6934H102.067L103.043 30.5927H102.321L102.112 29.6915ZM101.976 29.1237L101.577 27.4083L100.494 29.1237H101.973H101.976Z" fill="white"/>
<path d="M105.09 27.3091H103.789L103.913 26.6963H107.243L107.113 27.3091H105.812L105.156 30.5957H104.427L105.09 27.3091Z" fill="white"/>
<path d="M108.073 26.6963H108.802L108.016 30.5957H107.287L108.073 26.6963Z" fill="white"/>
<path d="M114.276 28.6014H114.965L114.645 30.1725C114.252 30.4789 113.725 30.6502 113.181 30.6502C112.004 30.6502 111.275 29.9772 111.275 28.9859C111.275 27.6671 112.234 26.6396 113.713 26.6396C114.43 26.6396 114.962 26.868 115.289 27.2795L114.763 27.7151C114.506 27.4027 114.158 27.2765 113.68 27.2765C112.661 27.2765 112.01 28.0065 112.01 28.9408C112.01 29.5807 112.437 30.0163 113.266 30.0163C113.541 30.0163 113.792 29.9562 114.028 29.8331L114.276 28.6014Z" fill="white"/>
<path d="M117.179 27.3032L116.976 28.3156H118.879L118.761 28.9104H116.855L116.644 29.9859H118.864L118.74 30.5927H115.797L116.583 26.6934H119.447L119.323 27.3002H117.182L117.179 27.3032Z" fill="white"/>
<path d="M124.102 26.6963L123.319 30.5957H122.72L121.111 27.8679L120.561 30.5957H119.838L120.624 26.6963H121.223L122.838 29.424L123.383 26.6963H124.105H124.102Z" fill="white"/>
<path d="M124.809 28.7578H126.352L126.234 29.3376H124.697L124.809 28.7578Z" fill="white"/>
<path d="M127.893 29.9832H129.698L129.568 30.596H126.68L126.776 30.1124L128.627 28.6584C129.114 28.2738 129.26 28.0395 129.26 27.7571C129.26 27.4567 129.042 27.2614 128.588 27.2614C128.24 27.2614 127.905 27.4116 127.657 27.679L127.164 27.2885C127.49 26.8979 128.05 26.6426 128.688 26.6426C129.508 26.6426 130.001 27.0662 130.001 27.655C130.001 28.1116 129.798 28.5021 129.114 29.0309L127.893 29.9832Z" fill="white"/>
</svg>
